{
  "asset": {
    "generator": "Khronos glTF Blender I/O v3.4.50",
    "version": "2.0"
  },
  "scene": 0,
  "scenes": [
    {
      "name": "Scene",
      "nodes": [
        0
      ]
    }
  ],
  "nodes": [
    {
      "mesh": 0,
      "name": "cabinet_medium_decorated"
    }
  ],
  "meshes": [
    {
      "name": "Cube.049",
      "primitives": [
        {
          "attributes": {
            "POSITION": 0,
            "TEXCOORD_0": 1,
            "NORMAL": 2
          },
          "indices": 3
        }
      ]
    }
  ],
  "accessors": [
    {
      "bufferView": 0,
      "componentType": 5126,
      "count": 1341,
      "max": [
        1.0416327714920044,
        1.827033281326294,
        0.5015586018562317
      ],
      "min": [
        -1,
        -7.450580596923828e-9,
        -0.5
      ],
      "type": "VEC3"
    },
    {
      "bufferView": 1,
      "componentType": 5126,
      "count": 1341,
      "type": "VEC2"
    },
    {
      "bufferView": 2,
      "componentType": 5126,
      "count": 1341,
      "type": "VEC3"
    },
    {
      "bufferView": 3,
      "componentType": 5123,
      "count": 3054,
      "type": "SCALAR"
    }
  ],
  "bufferViews": [
    {
      "buffer": 0,
      "byteLength": 16092,
      "byteOffset": 0,
      "target": 34962
    },
    {
      "buffer": 0,
      "byteLength": 10728,
      "byteOffset": 16092,
      "target": 34962
    },
    {
      "buffer": 0,
      "byteLength": 16092,
      "byteOffset": 26820,
      "target": 34962
    },
    {
      "buffer": 0,
      "byteLength": 6108,
      "byteOffset": 42912,
      "target": 34963
    }
  ],
  "buffers": [
    {
      "byteLength": 49020,
      "uri": "cabinet_medium_decorated.meshdata"
    }
  ]
}
